<?xml version="1.0" encoding="UTF-8"?>
<svg id="_圖層_1" data-name="圖層 1" xmlns="http://www.w3.org/2000/svg" viewBox="0 0 32 32">
  <defs>
    <style>
      .cls-1 {
        fill: #e83828;
      }
    </style>
  </defs>
  <path class="cls-1" d="M27.88,5.27l-10.14,10.15h0c-.15,.15-.24,.35-.24,.58s.09,.43,.24,.58h0s10.14,10.15,10.14,10.15c2.56-2.84,4.13-6.61,4.13-10.73s-1.46-7.79-4.12-10.73Z"/>
  <path class="cls-1" d="M16.82,0V12.04c0,.45,.37,.82,.82,.82,.23,0,.43-.09,.58-.24h0S26.72,4.11,26.72,4.11C23.98,1.62,20.51,.19,16.82,0Z"/>
  <path class="cls-1" d="M18.22,19.38h0c-.15-.14-.35-.24-.58-.24-.45,0-.82,.37-.82,.82v12.04c3.8-.19,7.25-1.72,9.9-4.11l-8.5-8.51Z"/>
  <path class="cls-1" d="M4.93,4.45V14.36c0,.45,.37,.82,.82,.82H14.36c.45,0,.82-.37,.82-.82V0c-3.97,.2-7.56,1.86-10.26,4.45Z"/>
  <path class="cls-1" d="M14.36,16.82H5.74c-.45,0-.82,.37-.82,.82v9.91c2.69,2.59,6.29,4.25,10.26,4.45v-14.36c0-.45-.37-.82-.82-.82Z"/>
  <path class="cls-1" d="M3.29,6.28V25.72c-2.06-2.7-3.29-6.07-3.29-9.72S1.23,8.98,3.29,6.28Z"/>
</svg>