<?xml version="1.0" encoding="UTF-8"?>
<svg id="_圖層_2" data-name="圖層 2" xmlns="http://www.w3.org/2000/svg" viewBox="0 0 82 21">
  <defs>
    <style>
      .cls-1 {
        fill: #e83828;
      }

      .cls-2 {
        fill: #fff;
      }
    </style>
  </defs>
  <g id="_白和全" data-name="白和全">
    <g>
      <polygon class="cls-2" points="14.77 10.18 19.85 3.31 16.01 3.31 11.67 9.45 11.63 9.45 11.63 3.31 11.63 3.31 8.3 3.31 8.3 3.31 8.3 8.92 3.33 8.92 3.33 3.31 0 3.31 0 17.62 3.33 17.62 3.33 11.44 8.3 11.44 8.3 17.62 8.3 17.62 11.63 17.62 11.63 17.62 11.63 10.91 11.67 10.91 16.22 17.62 20.04 17.62 14.77 10.18"/>
      <path class="cls-2" d="M31.21,3.31v2.77h-3.98v11.53h-3.4V6.09h-3.98V3.31h11.36Z"/>
      <path class="cls-2" d="M31.54,10.49c0-4.43,3.09-7.18,6.35-7.18,3.75,0,5.69,2.75,5.69,6.52,0,.66-.07,1.31-.17,1.63h-8.39c.29,2.24,1.75,3.41,3.77,3.41,1.12,0,2.09-.34,3.07-.95l1.22,2.19c-1.34,.92-3.07,1.51-4.77,1.51-3.8,0-6.76-2.65-6.76-7.13Zm8.98-1.39c0-1.85-.83-3.02-2.58-3.02-1.44,0-2.7,1.02-2.97,3.02h5.55Z"/>
      <path class="cls-2" d="M44.96,13.58c0-2.92,2.36-4.45,7.83-5.04-.05-1.34-.63-2.36-2.31-2.36-1.27,0-2.48,.56-3.75,1.29l-1.29-2.36c1.61-1,3.55-1.8,5.69-1.8,3.45,0,5.23,2.07,5.23,6.01v7.96h-3.26v-1.46c-1.19,1.02-2.56,1.8-4.11,1.8-2.43,0-4.04-1.73-4.04-4.04Zm7.83-.1v-2.75c-3.31,.44-4.43,1.34-4.43,2.55,0,1.07,.75,1.53,1.8,1.53s1.78-.49,2.63-1.34Z"/>
      <path class="cls-2" d="M67.81,3.31s-2.7,8.86-2.81,9.21c-.07-.21-2.8-9.21-2.8-9.21h-3.77v14.37h2.78v-6.02c0-1.12-.07-3.9-.07-3.9l.77,2.64,2.13,6h1.79l1.97-6.02,.91-2.68s-.04,2.84-.04,3.96v6.02h2.82V3.31h-3.69Z"/>
    </g>
    <g>
      <path class="cls-1" d="M81.05,11.51l-2.35,2.35h0s-.06,.08-.06,.13,.02,.1,.06,.13h0s2.35,2.35,2.35,2.35c.59-.66,.96-1.53,.96-2.48s-.34-1.8-.95-2.48Z"/>
      <path class="cls-1" d="M78.49,10.29v2.78c0,.1,.08,.19,.19,.19,.05,0,.1-.02,.13-.06h0s1.97-1.97,1.97-1.97c-.63-.57-1.44-.91-2.29-.95Z"/>
      <path class="cls-1" d="M78.81,14.77h0s-.08-.05-.13-.05c-.1,0-.19,.08-.19,.19v2.78c.88-.04,1.68-.4,2.29-.95l-1.97-1.97Z"/>
      <path class="cls-1" d="M75.74,11.32v2.29c0,.1,.08,.19,.19,.19h1.99c.1,0,.19-.08,.19-.19v-3.32c-.92,.05-1.75,.43-2.37,1.03Z"/>
      <path class="cls-1" d="M77.92,14.18h-1.99c-.1,0-.19,.08-.19,.19v2.29c.62,.6,1.45,.98,2.37,1.03v-3.32c0-.1-.08-.19-.19-.19Z"/>
      <path class="cls-1" d="M75.36,11.74v4.49c-.48-.62-.76-1.4-.76-2.25s.28-1.62,.76-2.25Z"/>
    </g>
  </g>
</svg>